<?xml version="1.0" standalone="no"?>
<!DOCTYPE svg PUBLIC "-//W3C//DTD SVG 20010904//EN"
 "http://www.w3.org/TR/2001/REC-SVG-20010904/DTD/svg10.dtd">
<svg version="1.0" xmlns="http://www.w3.org/2000/svg"
 width="512.000000pt" height="512.000000pt" viewBox="0 0 512.000000 512.000000"
 preserveAspectRatio="xMidYMid meet">

<g transform="translate(0.000000,512.000000) scale(0.100000,-0.100000)"
fill="#000000" stroke="none">
<path d="M2370 5004 c-114 -11 -276 -38 -388 -65 -890 -217 -1584 -911 -1801
-1801 -52 -214 -65 -329 -65 -578 0 -249 13 -364 65 -578 217 -890 911 -1584
1801 -1801 214 -52 329 -65 578 -65 249 0 364 13 578 65 890 217 1584 911
1801 1801 52 214 65 329 65 578 0 249 -13 364 -65 578 -197 807 -792 1463
-1577 1736 -126 44 -314 90 -452 111 -101 15 -447 27 -540 19z m405 -414 c708
-79 1322 -517 1629 -1160 224 -471 258 -1012 94 -1505 -278 -838 -1060 -1405
-1938 -1405 -786 0 -1503 455 -1844 1170 -262 551 -262 1189 0 1740 204 428
546 770 974 974 198 94 429 160 640 185 107 12 339 13 445 1z"/>
<path d="M2440 3996 l0 -83 -51 -7 c-178 -24 -352 -123 -456 -260 -92 -121
-133 -254 -133 -428 0 -136 20 -223 74 -333 92 -187 250 -312 499 -394 l67
-23 0 -354 c0 -195 -3 -354 -6 -354 -12 0 -90 59 -121 92 -45 47 -101 143
-120 208 -9 30 -20 59 -24 63 -4 5 -104 -1 -223 -14 l-217 -23 7 -45 c9 -71
71 -249 109 -316 104 -185 278 -311 494 -358 l101 -22 0 -152 0 -153 125 0
125 0 0 159 0 159 47 7 c120 18 269 81 370 157 115 87 220 247 260 398 14 50
18 101 17 220 -1 139 -4 163 -27 236 -74 225 -231 355 -556 460 l-111 35 0
330 c0 194 4 329 9 329 18 0 96 -66 127 -108 18 -23 40 -66 48 -97 14 -45 20
-55 39 -55 32 0 400 49 405 54 8 9 -39 160 -69 220 -97 196 -259 312 -496 357
l-63 12 0 83 0 84 -125 0 -125 0 0 -84z m0 -746 c0 -243 -2 -290 -14 -290 -8
0 -43 19 -78 43 -53 36 -68 52 -98 111 -31 62 -35 77 -34 145 1 58 7 89 26
131 37 81 118 150 176 150 l22 0 0 -290z m338 -886 c249 -124 213 -530 -55
-622 l-33 -11 0 330 c0 375 -7 350 88 303z"/>
</g>
</svg>
