<svg class="svg-icon" style="width: 1em;height: 1em;vertical-align: middle;fill: currentColor;overflow: hidden;" viewBox="0 0 1024 1024" version="1.1" xmlns="http://www.w3.org/2000/svg"><path d="M448 983.466667h-194.133333c-53.333333 0-96-42.666667-96-96V136.533333c0-53.333333 42.666667-96 96-96h516.266666c53.333333 0 96 42.666667 96 96V576c0 17.066667-14.933333 32-32 32s-32-14.933333-32-32V136.533333c0-17.066667-14.933333-32-32-32H253.866667c-17.066667 0-32 14.933333-32 32v748.8c0 17.066667 14.933333 32 32 32H448c17.066667 0 32 14.933333 32 32s-14.933333 34.133333-32 34.133334z"  /><path d="M672 273.066667h-320c-17.066667 0-32-14.933333-32-32s14.933333-32 32-32h317.866667c17.066667 0 32 14.933333 32 32s-12.8 32-29.866667 32zM672 458.666667h-320c-17.066667 0-32-14.933333-32-32s14.933333-32 32-32h317.866667c17.066667 0 32 14.933333 32 32s-12.8 32-29.866667 32zM522.666667 642.133333h-168.533334c-17.066667 0-32-14.933333-32-32s14.933333-32 32-32h168.533334c17.066667 0 32 14.933333 32 32s-14.933333 32-32 32zM834.133333 891.733333H597.333333c-17.066667 0-32-14.933333-32-32s14.933333-32 32-32h236.8c17.066667 0 32 14.933333 32 32s-14.933333 32-32 32z"  /><path d="M665.6 983.466667c-8.533333 0-17.066667-4.266667-23.466667-8.533334l-74.666666-74.666666c-21.333333-21.333333-21.333333-55.466667 0-74.666667l74.666666-74.666667c12.8-10.666667 34.133333-10.666667 44.8 4.266667 10.666667 12.8 10.666667 29.866667 0 42.666667L618.666667 866.133333l68.266666 68.266667c12.8 12.8 12.8 32 0 44.8-4.266667 0-12.8 4.266667-21.333333 4.266667z"  /></svg>